<?xml version="1.0" encoding="UTF-8" standalone="no"?>
<!DOCTYPE svg PUBLIC "-//W3C//DTD SVG 1.1//EN" "http://www.w3.org/Graphics/SVG/1.1/DTD/svg11.dtd">
<svg width="100%" height="100%" viewBox="0 0 3164 527" version="1.1" xmlns="http://www.w3.org/2000/svg" xmlns:xlink="http://www.w3.org/1999/xlink" xml:space="preserve" xmlns:serif="http://www.serif.com/" style="fill-rule:evenodd;clip-rule:evenodd;stroke-linejoin:round;stroke-miterlimit:2;">
    <g transform="matrix(1,0,0,1,-3818.33,-5135.67)">
        <g transform="matrix(1,0,0,1,3600,3598)">
            <g transform="matrix(1,0,0,1,185,-1675.67)">
                <g transform="matrix(666.667,0,0,666.667,0,3600)">
                    <path d="M0.25,-0.208L0.05,-0.369L0.099,-0.418L0.35,-0.208L0.099,-0.007L0.05,-0.056L0.25,-0.208Z" style="fill:#ffffff;fill-rule:nonzero;"/>
                </g>
                <g transform="matrix(666.667,0,0,666.667,306.667,3600)">
                    <path d="M0.42,-0L0.35,-0L0.35,-0.05L0.3,-0L0.14,-0C0.121,-0 0.104,-0.007 0.091,-0.021C0.077,-0.034 0.07,-0.051 0.07,-0.07L0.07,-0.28C0.07,-0.299 0.077,-0.316 0.091,-0.33C0.104,-0.343 0.121,-0.35 0.14,-0.35L0.35,-0.35L0.35,-0.51L0.42,-0.58L0.42,-0ZM0.35,-0.06L0.35,-0.34L0.3,-0.29L0.14,-0.29L0.14,-0.06L0.35,-0.06Z" style="fill:#ffffff;fill-rule:nonzero;"/>
                </g>
                <g transform="matrix(666.667,0,0,666.667,640,3600)">
                    <path d="M0.405,-0L0.335,-0L0.335,-0.051L0.275,-0L0.125,-0C0.106,-0 0.089,-0.007 0.076,-0.021C0.062,-0.034 0.055,-0.051 0.055,-0.07L0.055,-0.14C0.055,-0.159 0.062,-0.176 0.076,-0.19C0.089,-0.203 0.106,-0.21 0.125,-0.21L0.325,-0.21L0.265,-0.151L0.125,-0.151L0.125,-0.06L0.335,-0.06L0.335,-0.29L0.055,-0.29L0.115,-0.35L0.335,-0.35C0.354,-0.35 0.371,-0.343 0.385,-0.33C0.398,-0.316 0.405,-0.299 0.405,-0.28L0.405,-0Z" style="fill:#ffffff;fill-rule:nonzero;"/>
                </g>
                <g transform="matrix(666.667,0,0,666.667,956.667,3600)">
                    <path d="M0.3,-0L0.16,-0C0.141,-0 0.124,-0.007 0.111,-0.021C0.097,-0.034 0.09,-0.051 0.09,-0.07L0.09,-0.29L-0.01,-0.29L0.05,-0.35L0.09,-0.35L0.09,-0.42L0.16,-0.49L0.16,-0.35L0.3,-0.35L0.3,-0.29L0.16,-0.29L0.16,-0.06L0.3,-0.06L0.3,-0Z" style="fill:#ffffff;fill-rule:nonzero;"/>
                </g>
                <g transform="matrix(666.667,0,0,666.667,1176.67,3600)">
                    <path d="M0.405,-0L0.335,-0L0.335,-0.051L0.275,-0L0.125,-0C0.106,-0 0.089,-0.007 0.076,-0.021C0.062,-0.034 0.055,-0.051 0.055,-0.07L0.055,-0.14C0.055,-0.159 0.062,-0.176 0.076,-0.19C0.089,-0.203 0.106,-0.21 0.125,-0.21L0.325,-0.21L0.265,-0.151L0.125,-0.151L0.125,-0.06L0.335,-0.06L0.335,-0.29L0.055,-0.29L0.115,-0.35L0.335,-0.35C0.354,-0.35 0.371,-0.343 0.385,-0.33C0.398,-0.316 0.405,-0.299 0.405,-0.28L0.405,-0Z" style="fill:#ffffff;fill-rule:nonzero;"/>
                </g>
                <g transform="matrix(666.667,0,0,666.667,1493.33,3600)">
                    <path d="M0.46,-0.35L0.4,-0.29L0.15,-0.29L0.15,-0.06L0.36,-0.06L0.36,-0.26L0.43,-0.26L0.43,0.14C0.43,0.159 0.423,0.176 0.409,0.189C0.396,0.203 0.379,0.21 0.36,0.21L0.07,0.21L0.13,0.15L0.36,0.15L0.36,-0.051L0.3,-0L0.15,-0C0.131,-0 0.114,-0.007 0.101,-0.021C0.087,-0.034 0.08,-0.051 0.08,-0.07L0.08,-0.28C0.08,-0.299 0.087,-0.316 0.101,-0.33C0.114,-0.343 0.131,-0.35 0.15,-0.35L0.46,-0.35Z" style="fill:#ffffff;fill-rule:nonzero;"/>
                </g>
                <g transform="matrix(666.667,0,0,666.667,1830,3600)">
                    <path d="M0.15,-0L0.08,-0L0.08,-0.51L0.15,-0.58L0.15,-0Z" style="fill:#ffffff;fill-rule:nonzero;"/>
                </g>
                <g transform="matrix(666.667,0,0,666.667,1983.33,3600)">
                    <path d="M0.14,-0.41L0.07,-0.41L0.07,-0.49L0.14,-0.49L0.14,-0.41ZM0.14,-0L0.07,-0L0.07,-0.3L0.14,-0.37L0.14,-0Z" style="fill:#ffffff;fill-rule:nonzero;"/>
                </g>
                <g transform="matrix(666.667,0,0,666.667,2123.33,3600)">
                    <path d="M0.3,-0L0.16,-0C0.141,-0 0.124,-0.007 0.111,-0.021C0.097,-0.034 0.09,-0.051 0.09,-0.07L0.09,-0.29L-0.01,-0.29L0.05,-0.35L0.09,-0.35L0.09,-0.42L0.16,-0.49L0.16,-0.35L0.3,-0.35L0.3,-0.29L0.16,-0.29L0.16,-0.06L0.3,-0.06L0.3,-0Z" style="fill:#ffffff;fill-rule:nonzero;"/>
                </g>
                <g transform="matrix(666.667,0,0,666.667,2343.33,3600)">
                    <path d="M0.37,-0.35L0.309,-0.29L0.14,-0.29L0.14,-0.06L0.35,-0.06L0.35,-0L0.14,-0C0.121,-0 0.104,-0.007 0.091,-0.021C0.077,-0.034 0.07,-0.051 0.07,-0.07L0.07,-0.28C0.07,-0.299 0.077,-0.316 0.091,-0.33C0.104,-0.343 0.121,-0.35 0.14,-0.35L0.37,-0.35Z" style="fill:#ffffff;fill-rule:nonzero;"/>
                </g>
                <g transform="matrix(666.667,0,0,666.667,2590,3600)">
                    <path d="M0.43,-0L0.36,-0L0.36,-0.29L0.15,-0.29L0.15,-0L0.08,-0L0.08,-0.51L0.15,-0.58L0.15,-0.3L0.2,-0.35L0.36,-0.35C0.379,-0.35 0.396,-0.343 0.409,-0.33C0.423,-0.316 0.43,-0.299 0.43,-0.28L0.43,-0Z" style="fill:#ffffff;fill-rule:nonzero;"/>
                </g>
                <g transform="matrix(666.667,0,0,666.667,2923.33,3600)">
                    <path d="M0.41,-0.056L0.361,-0.007L0.11,-0.208L0.361,-0.418L0.41,-0.369L0.21,-0.208L0.41,-0.056Z" style="fill:#ffffff;fill-rule:nonzero;"/>
                </g>
            </g>
        </g>
    </g>
</svg>
